<mxfile host="app.diagrams.net" agent="Mozilla/5.0 (Windows NT 10.0; Win64; x64) AppleWebKit/537.36 (KHTML, like Gecko) Chrome/136.0.0.0 Safari/537.36" version="27.1.1">
  <diagram name="Page-1" id="Z9HuokQojh67GDFx6udh">
    <mxGraphModel dx="2296" dy="2326" grid="1" gridSize="10" guides="1" tooltips="1" connect="1" arrows="1" fold="1" page="1" pageScale="1" pageWidth="850" pageHeight="1100" math="0" shadow="0">
      <root>
        <mxCell id="0" />
        <mxCell id="1" parent="0" />
        <mxCell id="Eve3vq-cL1HhzWnAV3yX-51" value="" style="rounded=0;whiteSpace=wrap;html=1;dashed=1;fillColor=none;" vertex="1" parent="1">
          <mxGeometry x="660" y="-220" width="1020" height="560" as="geometry" />
        </mxCell>
        <object placeholders="1" c4Name="Warehouse manager" c4Type="Worker" c4Description="Manager on site,responisble for acting fast" label="&lt;font style=&quot;font-size: 16px&quot;&gt;&lt;b&gt;%c4Name%&lt;/b&gt;&lt;/font&gt;&lt;div&gt;[%c4Type%]&lt;/div&gt;&lt;br&gt;&lt;div&gt;&lt;font style=&quot;font-size: 11px&quot;&gt;&lt;font color=&quot;#cccccc&quot;&gt;%c4Description%&lt;/font&gt;&lt;/div&gt;" id="Eve3vq-cL1HhzWnAV3yX-52">
          <mxCell style="html=1;fontSize=11;dashed=0;whiteSpace=wrap;fillColor=#083F75;strokeColor=#06315C;fontColor=#ffffff;shape=mxgraph.c4.person2;align=center;metaEdit=1;points=[[0.5,0,0],[1,0.5,0],[1,0.75,0],[0.75,1,0],[0.5,1,0],[0.25,1,0],[0,0.75,0],[0,0.5,0]];resizable=0;" vertex="1" parent="1">
            <mxGeometry x="970" y="-560" width="200" height="180" as="geometry" />
          </mxCell>
        </object>
        <object placeholders="1" c4Name="Warehouse Admin" c4Type="Admin" c4Description="Remote Manager - needs to relay information to the rest of managment" label="&lt;font style=&quot;font-size: 16px&quot;&gt;&lt;b&gt;%c4Name%&lt;/b&gt;&lt;/font&gt;&lt;div&gt;[%c4Type%]&lt;/div&gt;&lt;br&gt;&lt;div&gt;&lt;font style=&quot;font-size: 11px&quot;&gt;&lt;font color=&quot;#cccccc&quot;&gt;%c4Description%&lt;/font&gt;&lt;/div&gt;" id="Eve3vq-cL1HhzWnAV3yX-53">
          <mxCell style="html=1;fontSize=11;dashed=0;whiteSpace=wrap;fillColor=#083F75;strokeColor=#06315C;fontColor=#ffffff;shape=mxgraph.c4.person2;align=center;metaEdit=1;points=[[0.5,0,0],[1,0.5,0],[1,0.75,0],[0.75,1,0],[0.5,1,0],[0.25,1,0],[0,0.75,0],[0,0.5,0]];resizable=0;" vertex="1" parent="1">
            <mxGeometry x="1270" y="-560" width="200" height="180" as="geometry" />
          </mxCell>
        </object>
        <mxCell id="Eve3vq-cL1HhzWnAV3yX-54" style="edgeStyle=orthogonalEdgeStyle;rounded=0;orthogonalLoop=1;jettySize=auto;html=1;exitX=0.5;exitY=1;exitDx=0;exitDy=0;exitPerimeter=0;entryX=0.25;entryY=0;entryDx=0;entryDy=0;entryPerimeter=0;" edge="1" parent="1" source="Eve3vq-cL1HhzWnAV3yX-52" target="Eve3vq-cL1HhzWnAV3yX-63">
          <mxGeometry relative="1" as="geometry">
            <mxPoint x="1070" y="-350" as="sourcePoint" />
            <mxPoint x="1150" y="-220" as="targetPoint" />
            <Array as="points">
              <mxPoint x="1070" y="-270" />
              <mxPoint x="1150" y="-270" />
            </Array>
          </mxGeometry>
        </mxCell>
        <mxCell id="Eve3vq-cL1HhzWnAV3yX-55" style="edgeStyle=orthogonalEdgeStyle;rounded=0;orthogonalLoop=1;jettySize=auto;html=1;exitX=0.5;exitY=1;exitDx=0;exitDy=0;exitPerimeter=0;entryX=0.75;entryY=0;entryDx=0;entryDy=0;entryPerimeter=0;" edge="1" parent="1" source="Eve3vq-cL1HhzWnAV3yX-53" target="Eve3vq-cL1HhzWnAV3yX-63">
          <mxGeometry relative="1" as="geometry">
            <mxPoint x="1270" y="-220" as="targetPoint" />
            <Array as="points">
              <mxPoint x="1370" y="-270" />
              <mxPoint x="1270" y="-270" />
            </Array>
          </mxGeometry>
        </mxCell>
        <object placeholders="1" c4Name="SMS notification system" c4Type="Software System" c4Description="Sends a SMS, whenever system is trying to alert user" label="&lt;font style=&quot;font-size: 16px&quot;&gt;&lt;b&gt;%c4Name%&lt;/b&gt;&lt;/font&gt;&lt;div&gt;[%c4Type%]&lt;/div&gt;&lt;br&gt;&lt;div&gt;&lt;font style=&quot;font-size: 11px&quot;&gt;&lt;font color=&quot;#cccccc&quot;&gt;%c4Description%&lt;/font&gt;&lt;/div&gt;" id="Eve3vq-cL1HhzWnAV3yX-58">
          <mxCell style="rounded=1;whiteSpace=wrap;html=1;labelBackgroundColor=none;fillColor=#d80073;align=center;arcSize=10;strokeColor=#A50040;metaEdit=1;resizable=0;points=[[0.25,0,0],[0.5,0,0],[0.75,0,0],[1,0.25,0],[1,0.5,0],[1,0.75,0],[0.75,1,0],[0.5,1,0],[0.25,1,0],[0,0.75,0],[0,0.5,0],[0,0.25,0]];fontColor=#ffffff;" vertex="1" parent="1">
            <mxGeometry x="1750" width="240" height="120" as="geometry" />
          </mxCell>
        </object>
        <mxCell id="Eve3vq-cL1HhzWnAV3yX-59" style="edgeStyle=orthogonalEdgeStyle;rounded=0;orthogonalLoop=1;jettySize=auto;html=1;exitX=0.5;exitY=0;exitDx=0;exitDy=0;exitPerimeter=0;entryX=0.5;entryY=0;entryDx=0;entryDy=0;entryPerimeter=0;" edge="1" parent="1" source="Eve3vq-cL1HhzWnAV3yX-58" target="Eve3vq-cL1HhzWnAV3yX-52">
          <mxGeometry relative="1" as="geometry">
            <Array as="points">
              <mxPoint x="1710" y="-630" />
              <mxPoint x="1190" y="-630" />
            </Array>
          </mxGeometry>
        </mxCell>
        <mxCell id="Eve3vq-cL1HhzWnAV3yX-60" style="edgeStyle=orthogonalEdgeStyle;rounded=0;orthogonalLoop=1;jettySize=auto;html=1;exitX=0.5;exitY=0;exitDx=0;exitDy=0;exitPerimeter=0;entryX=0.5;entryY=0;entryDx=0;entryDy=0;entryPerimeter=0;" edge="1" parent="1" source="Eve3vq-cL1HhzWnAV3yX-58" target="Eve3vq-cL1HhzWnAV3yX-53">
          <mxGeometry relative="1" as="geometry">
            <Array as="points">
              <mxPoint x="1690" y="-630" />
              <mxPoint x="1380" y="-630" />
            </Array>
          </mxGeometry>
        </mxCell>
        <mxCell id="Eve3vq-cL1HhzWnAV3yX-62" style="edgeStyle=orthogonalEdgeStyle;rounded=0;orthogonalLoop=1;jettySize=auto;html=1;exitX=0.5;exitY=1;exitDx=0;exitDy=0;exitPerimeter=0;" edge="1" parent="1" source="Eve3vq-cL1HhzWnAV3yX-63" target="Eve3vq-cL1HhzWnAV3yX-64">
          <mxGeometry relative="1" as="geometry" />
        </mxCell>
        <object placeholders="1" c4Name="Dashboard" c4Type="Container: Web App, React" c4Description="Provides a web-based UI for users to monitor and manage warehouse conditions." label="&lt;font style=&quot;font-size: 16px&quot;&gt;&lt;b&gt;%c4Name%&lt;/b&gt;&lt;/font&gt;&lt;div&gt;[%c4Type%]&lt;/div&gt;&lt;br&gt;&lt;div&gt;&lt;font style=&quot;font-size: 11px&quot;&gt;&lt;font color=&quot;#cccccc&quot;&gt;%c4Description%&lt;/font&gt;&lt;/div&gt;" id="Eve3vq-cL1HhzWnAV3yX-63">
          <mxCell style="rounded=1;whiteSpace=wrap;html=1;labelBackgroundColor=none;fillColor=#1061B0;fontColor=#ffffff;align=center;arcSize=0;strokeColor=#0D5091;metaEdit=1;resizable=0;points=[[0.25,0,0],[0.5,0,0],[0.75,0,0],[1,0.25,0],[1,0.5,0],[1,0.75,0],[0.75,1,0],[0.5,1,0],[0.25,1,0],[0,0.75,0],[0,0.5,0],[0,0.25,0]];imageWidth=200;" vertex="1" parent="1">
            <mxGeometry x="1090" y="-200" width="240" height="120" as="geometry" />
          </mxCell>
        </object>
        <object placeholders="1" c4Name="API Backend" c4Type="Container: .NET Core API" c4Description="Handles business logic, receives sensor data, exposes REST API for frontend and integrations." label="&lt;font style=&quot;font-size: 16px&quot;&gt;&lt;b&gt;%c4Name%&lt;/b&gt;&lt;/font&gt;&lt;div&gt;[%c4Type%]&lt;/div&gt;&lt;br&gt;&lt;div&gt;&lt;font style=&quot;font-size: 11px&quot;&gt;&lt;font color=&quot;#cccccc&quot;&gt;%c4Description%&lt;/font&gt;&lt;/div&gt;" id="Eve3vq-cL1HhzWnAV3yX-64">
          <mxCell style="rounded=1;whiteSpace=wrap;html=1;labelBackgroundColor=none;fillColor=#1061B0;fontColor=#ffffff;align=center;arcSize=0;strokeColor=#0D5091;metaEdit=1;resizable=0;points=[[0.25,0,0],[0.5,0,0],[0.75,0,0],[1,0.25,0],[1,0.5,0],[1,0.75,0],[0.75,1,0],[0.5,1,0],[0.25,1,0],[0,0.75,0],[0,0.5,0],[0,0.25,0]];imageWidth=200;" vertex="1" parent="1">
            <mxGeometry x="1090" width="240" height="120" as="geometry" />
          </mxCell>
        </object>
        <object placeholders="1" c4Name="IoT Device Gateway" c4Type="Container: Python/Azure IoT Hub" c4Description="Receives data from physical sensors and forwards it to the API Backend." label="&lt;font style=&quot;font-size: 16px&quot;&gt;&lt;b&gt;%c4Name%&lt;/b&gt;&lt;/font&gt;&lt;div&gt;[%c4Type%]&lt;/div&gt;&lt;br&gt;&lt;div&gt;&lt;font style=&quot;font-size: 11px&quot;&gt;&lt;font color=&quot;#cccccc&quot;&gt;%c4Description%&lt;/font&gt;&lt;/div&gt;" id="Eve3vq-cL1HhzWnAV3yX-65">
          <mxCell style="rounded=1;whiteSpace=wrap;html=1;labelBackgroundColor=none;fillColor=#1061B0;fontColor=#ffffff;align=center;arcSize=0;strokeColor=#0D5091;metaEdit=1;resizable=0;points=[[0.25,0,0],[0.5,0,0],[0.75,0,0],[1,0.25,0],[1,0.5,0],[1,0.75,0],[0.75,1,0],[0.5,1,0],[0.25,1,0],[0,0.75,0],[0,0.5,0],[0,0.25,0]];imageWidth=200;" vertex="1" parent="1">
            <mxGeometry x="680" y="200" width="240" height="120" as="geometry" />
          </mxCell>
        </object>
        <object placeholders="1" c4Name="Accounts Database" c4Type="Database" c4Description="Stores user info, credentials." label="&lt;font style=&quot;font-size: 16px&quot;&gt;&lt;b&gt;%c4Name%&lt;/b&gt;&lt;/font&gt;&lt;div&gt;[%c4Type%]&lt;/div&gt;&lt;br&gt;&lt;div&gt;&lt;font style=&quot;font-size: 11px&quot;&gt;&lt;font color=&quot;#cccccc&quot;&gt;%c4Description%&lt;/font&gt;&lt;/div&gt;" id="Eve3vq-cL1HhzWnAV3yX-66">
          <mxCell style="rounded=1;whiteSpace=wrap;html=1;labelBackgroundColor=none;fillColor=#1061B0;fontColor=#ffffff;align=center;arcSize=0;strokeColor=#0D5091;metaEdit=1;resizable=0;points=[[0.25,0,0],[0.5,0,0],[0.75,0,0],[1,0.25,0],[1,0.5,0],[1,0.75,0],[0.75,1,0],[0.5,1,0],[0.25,1,0],[0,0.75,0],[0,0.5,0],[0,0.25,0]];imageWidth=200;" vertex="1" parent="1">
            <mxGeometry x="1380" y="180" width="240" height="120" as="geometry" />
          </mxCell>
        </object>
        <mxCell id="Eve3vq-cL1HhzWnAV3yX-67" style="edgeStyle=orthogonalEdgeStyle;rounded=0;orthogonalLoop=1;jettySize=auto;html=1;exitX=0.5;exitY=0;exitDx=0;exitDy=0;exitPerimeter=0;entryX=0.5;entryY=0;entryDx=0;entryDy=0;entryPerimeter=0;" edge="1" parent="1" source="Eve3vq-cL1HhzWnAV3yX-65" target="Eve3vq-cL1HhzWnAV3yX-65">
          <mxGeometry relative="1" as="geometry" />
        </mxCell>
        <mxCell id="Eve3vq-cL1HhzWnAV3yX-68" style="edgeStyle=orthogonalEdgeStyle;rounded=0;orthogonalLoop=1;jettySize=auto;html=1;exitX=1;exitY=0.5;exitDx=0;exitDy=0;exitPerimeter=0;entryX=0.5;entryY=1;entryDx=0;entryDy=0;entryPerimeter=0;" edge="1" parent="1" source="Eve3vq-cL1HhzWnAV3yX-65" target="Eve3vq-cL1HhzWnAV3yX-64">
          <mxGeometry relative="1" as="geometry">
            <Array as="points">
              <mxPoint x="1210" y="260" />
            </Array>
          </mxGeometry>
        </mxCell>
        <mxCell id="Eve3vq-cL1HhzWnAV3yX-70" value="Calls REST API for data/commands" style="text;html=1;align=center;verticalAlign=middle;whiteSpace=wrap;rounded=0;" vertex="1" parent="1">
          <mxGeometry x="1110" y="-60" width="200" height="30" as="geometry" />
        </mxCell>
        <mxCell id="Eve3vq-cL1HhzWnAV3yX-71" value="" style="endArrow=classic;startArrow=classic;html=1;rounded=0;entryX=0.5;entryY=0;entryDx=0;entryDy=0;entryPerimeter=0;exitX=1;exitY=0.75;exitDx=0;exitDy=0;exitPerimeter=0;" edge="1" parent="1" source="Eve3vq-cL1HhzWnAV3yX-64" target="Eve3vq-cL1HhzWnAV3yX-66">
          <mxGeometry width="50" height="50" relative="1" as="geometry">
            <mxPoint x="1670" y="95" as="sourcePoint" />
            <mxPoint x="1400" y="215" as="targetPoint" />
            <Array as="points">
              <mxPoint x="1500" y="90" />
            </Array>
          </mxGeometry>
        </mxCell>
        <mxCell id="Eve3vq-cL1HhzWnAV3yX-72" value="Reads/writes sensor readings, alerts, users" style="text;html=1;align=center;verticalAlign=middle;whiteSpace=wrap;rounded=0;" vertex="1" parent="1">
          <mxGeometry x="1380" y="130" width="260" height="30" as="geometry" />
        </mxCell>
        <mxCell id="Eve3vq-cL1HhzWnAV3yX-73" value="Sends seonsor data" style="text;html=1;align=center;verticalAlign=middle;whiteSpace=wrap;rounded=0;" vertex="1" parent="1">
          <mxGeometry x="940" y="240" width="130" height="30" as="geometry" />
        </mxCell>
        <mxCell id="Eve3vq-cL1HhzWnAV3yX-74" value="Sends SMS alert" style="text;html=1;align=center;verticalAlign=middle;whiteSpace=wrap;rounded=0;" vertex="1" parent="1">
          <mxGeometry x="1490" y="20" width="130" height="30" as="geometry" />
        </mxCell>
        <mxCell id="Eve3vq-cL1HhzWnAV3yX-76" value="Views current temperature/humidity" style="text;html=1;align=center;verticalAlign=middle;whiteSpace=wrap;rounded=0;" vertex="1" parent="1">
          <mxGeometry x="970" y="-350" width="230" height="30" as="geometry" />
        </mxCell>
        <mxCell id="Eve3vq-cL1HhzWnAV3yX-77" value="Views &amp;amp; edits data" style="text;html=1;align=center;verticalAlign=middle;whiteSpace=wrap;rounded=0;" vertex="1" parent="1">
          <mxGeometry x="1290" y="-350" width="160" height="30" as="geometry" />
        </mxCell>
        <mxCell id="Eve3vq-cL1HhzWnAV3yX-79" value="" style="endArrow=classic;html=1;rounded=0;entryX=0;entryY=0.5;entryDx=0;entryDy=0;entryPerimeter=0;exitX=1;exitY=0.5;exitDx=0;exitDy=0;exitPerimeter=0;" edge="1" parent="1" source="Eve3vq-cL1HhzWnAV3yX-64" target="Eve3vq-cL1HhzWnAV3yX-58">
          <mxGeometry width="50" height="50" relative="1" as="geometry">
            <mxPoint x="1590" y="30" as="sourcePoint" />
            <mxPoint x="1640" y="-20" as="targetPoint" />
          </mxGeometry>
        </mxCell>
        <mxCell id="Eve3vq-cL1HhzWnAV3yX-81" value="Smart Warehouse IoT System" style="text;whiteSpace=wrap;" vertex="1" parent="1">
          <mxGeometry x="715" y="-210" width="190" height="40" as="geometry" />
        </mxCell>
        <object placeholders="1" c4Name="Sensor Data Database" c4Type="Database" c4Description="Stores user info, credentials." label="&lt;font style=&quot;font-size: 16px&quot;&gt;&lt;b&gt;%c4Name%&lt;/b&gt;&lt;/font&gt;&lt;div&gt;[%c4Type%]&lt;/div&gt;&lt;br&gt;&lt;div&gt;&lt;font style=&quot;font-size: 11px&quot;&gt;&lt;font color=&quot;#cccccc&quot;&gt;%c4Description%&lt;/font&gt;&lt;/div&gt;" id="Eve3vq-cL1HhzWnAV3yX-82">
          <mxCell style="rounded=1;whiteSpace=wrap;html=1;labelBackgroundColor=none;fillColor=#1061B0;fontColor=#ffffff;align=center;arcSize=0;strokeColor=#0D5091;metaEdit=1;resizable=0;points=[[0.25,0,0],[0.5,0,0],[0.75,0,0],[1,0.25,0],[1,0.5,0],[1,0.75,0],[0.75,1,0],[0.5,1,0],[0.25,1,0],[0,0.75,0],[0,0.5,0],[0,0.25,0]];imageWidth=200;" vertex="1" parent="1">
            <mxGeometry x="680" width="240" height="120" as="geometry" />
          </mxCell>
        </object>
        <mxCell id="Eve3vq-cL1HhzWnAV3yX-84" value="" style="endArrow=classic;html=1;rounded=0;entryX=1;entryY=0.5;entryDx=0;entryDy=0;entryPerimeter=0;exitX=0;exitY=0.5;exitDx=0;exitDy=0;exitPerimeter=0;" edge="1" parent="1" source="Eve3vq-cL1HhzWnAV3yX-64" target="Eve3vq-cL1HhzWnAV3yX-82">
          <mxGeometry width="50" height="50" relative="1" as="geometry">
            <mxPoint x="1440" y="-20" as="sourcePoint" />
            <mxPoint x="1490" y="-70" as="targetPoint" />
          </mxGeometry>
        </mxCell>
        <mxCell id="Eve3vq-cL1HhzWnAV3yX-85" value="Reads/writes sensor readings" style="text;whiteSpace=wrap;html=1;" vertex="1" parent="1">
          <mxGeometry x="920" y="30" width="180" height="40" as="geometry" />
        </mxCell>
      </root>
    </mxGraphModel>
  </diagram>
</mxfile>
